<?xml version="1.0" encoding="utf-8"?>
<!-- Generator: Adobe Illustrator 25.2.1, SVG Export Plug-In . SVG Version: 6.00 Build 0)  -->
<svg version="1.1" id="Layer_1" xmlns="http://www.w3.org/2000/svg" xmlns:xlink="http://www.w3.org/1999/xlink" x="0px" y="0px"
	 viewBox="0 0 2000 1200" style="enable-background:new 0 0 2000 1200;" xml:space="preserve">
<style type="text/css">
	.st0{fill:#DBB539;}
</style>
<g>
	<path class="st0" d="M483.69,308.92c-4.91-32.05-34.18-54.16-65.37-49.39c-30.07,4.6-50.94,32.51-48.01,63.22
		c-0.25-1.17-0.47-2.36-0.66-3.56c-4.02-26.27,9.58-51.06,31.79-61.78c-12.45-21.45-36.67-34.24-62.09-30.35
		c-33.42,5.12-56.25,37.11-50.99,71.44c0.27,1.78,0.63,3.53,1.04,5.25c22.32-3.22,43.19,12.65,46.71,35.6
		c0.22,1.45,0.37,2.88,0.44,4.31c-5.32-20.73-25.15-34.5-46.19-31.28c-22.46,3.44-37.8,24.94-34.27,48.01
		c3.53,23.08,24.61,39,47.06,35.56c2.19-0.33,4.3-0.85,6.35-1.51l0.3-0.04l7.13,46.53c0.17,0.17,0.34,0.33,0.52,0.48
		c0.01,0.01,0.02,0.02,0.03,0.02c0.48,1.07,1.61,1.73,2.78,1.59c0.06,0.02,0.12,0.05,0.18,0.07l0.98,0.38
		c0.66,0.28,1.29,0.43,1.92,0.61c0.63,0.16,1.27,0.39,1.89,0.5c1.24,0.23,2.48,0.52,3.7,0.68l3.65,0.43
		c4.84,0.36,9.61,0.43,14.34,0.21l3.54-0.18c1.18-0.05,2.36-0.11,3.53-0.24l7.02-0.65c2.33-0.26,4.65-0.59,6.97-0.89l3.48-0.45
		c1.16-0.16,2.31-0.37,3.46-0.55c4.61-0.76,9.22-1.46,13.79-2.4c4.58-0.89,9.15-1.74,13.69-2.79l6.81-1.51l3.4-0.76l3.39-0.83
		l13.54-3.34l-13.73,2.37l-3.43,0.59l-3.44,0.51l-6.89,1.02c-4.58,0.73-9.19,1.25-13.79,1.81c-4.59,0.62-9.21,0.98-13.81,1.41
		c-1.15,0.1-2.3,0.23-3.45,0.3l-3.45,0.2c-2.3,0.13-4.6,0.29-6.9,0.38l-6.89,0.14c-1.15,0.04-2.29,0.02-3.43-0.01l-3.42-0.07
		c-4.56-0.11-9.07-0.51-13.47-1.15l-0.57-0.11c1.48-0.48,2.9-0.92,4.15-1.29c18.09-9.31,50.46-21.18,101.56-24.5l-1.87-12.2
		l-3.74-24.4c1.16-0.23,2.31-0.51,3.44-0.81C467.44,370.62,488.59,340.86,483.69,308.92z"/>
	<g>
		<path class="st0" d="M621.03,872.5v10.06h-31.92v22.18H614v10.06h-24.89v32.9h-12.34v-75.2H621.03z"/>
		<path class="st0" d="M645.27,944.83c-4.54-2.56-8.12-6.17-10.71-10.82c-2.59-4.65-3.9-10.04-3.9-16.18c0-6.06,1.34-11.43,4-16.12
			c2.67-4.69,6.32-8.3,10.93-10.82c4.61-2.52,9.77-3.79,15.47-3.79c5.69,0,10.85,1.26,15.47,3.79c4.61,2.53,8.25,6.13,10.93,10.82
			c2.67,4.69,4,10.06,4,16.12c0,6.06-1.37,11.43-4.11,16.12c-2.74,4.69-6.48,8.32-11.2,10.88c-4.73,2.56-9.94,3.84-15.63,3.84
			C654.9,948.68,649.81,947.4,645.27,944.83z M669.45,935.69c2.78-1.51,5.03-3.79,6.76-6.82c1.73-3.03,2.6-6.71,2.6-11.04
			c0-4.33-0.83-7.99-2.49-10.98c-1.66-2.99-3.86-5.25-6.6-6.76c-2.74-1.51-5.69-2.27-8.87-2.27s-6.11,0.76-8.82,2.27
			c-2.71,1.51-4.85,3.77-6.44,6.76c-1.59,2.99-2.38,6.65-2.38,10.98c0,6.42,1.64,11.38,4.92,14.88c3.28,3.5,7.41,5.25,12.39,5.25
			C663.7,937.96,666.67,937.21,669.45,935.69z"/>
		<path class="st0" d="M716.47,944.83c-4.54-2.56-8.12-6.17-10.71-10.82c-2.59-4.65-3.9-10.04-3.9-16.18c0-6.06,1.34-11.43,4-16.12
			c2.67-4.69,6.32-8.3,10.93-10.82c4.61-2.52,9.77-3.79,15.47-3.79c5.69,0,10.85,1.26,15.47,3.79c4.61,2.53,8.25,6.13,10.93,10.82
			c2.67,4.69,4,10.06,4,16.12c0,6.06-1.37,11.43-4.11,16.12c-2.74,4.69-6.48,8.32-11.2,10.88c-4.73,2.56-9.94,3.84-15.63,3.84
			C726.09,948.68,721.01,947.4,716.47,944.83z M740.65,935.69c2.78-1.51,5.03-3.79,6.76-6.82c1.73-3.03,2.6-6.71,2.6-11.04
			c0-4.33-0.83-7.99-2.49-10.98c-1.66-2.99-3.86-5.25-6.6-6.76c-2.74-1.51-5.69-2.27-8.87-2.27c-3.18,0-6.11,0.76-8.82,2.27
			c-2.71,1.51-4.85,3.77-6.44,6.76c-1.59,2.99-2.38,6.65-2.38,10.98c0,6.42,1.64,11.38,4.92,14.88c3.28,3.5,7.41,5.25,12.39,5.25
			C734.89,937.96,737.87,937.21,740.65,935.69z"/>
		<path class="st0" d="M776.68,901.72c2.49-4.62,5.88-8.21,10.17-10.77c4.29-2.56,9.08-3.84,14.34-3.84c3.89,0,7.74,0.85,11.52,2.54
			c3.79,1.7,6.8,3.95,9.03,6.76v-28.78h12.44v80.07h-12.44v-8.98c-2.02,2.89-4.81,5.27-8.39,7.14c-3.57,1.88-7.66,2.81-12.28,2.81
			c-5.19,0-9.94-1.32-14.23-3.95c-4.29-2.63-7.68-6.31-10.17-11.04c-2.49-4.72-3.73-10.08-3.73-16.07S774.19,906.33,776.68,901.72z
			 M819.21,907.13c-1.7-3.03-3.92-5.34-6.66-6.92c-2.74-1.59-5.7-2.38-8.87-2.38c-3.18,0-6.13,0.77-8.88,2.32
			c-2.74,1.55-4.96,3.82-6.65,6.82c-1.7,2.99-2.54,6.55-2.54,10.66s0.85,7.72,2.54,10.82c1.69,3.1,3.93,5.47,6.7,7.09
			c2.78,1.62,5.72,2.43,8.82,2.43c3.17,0,6.13-0.79,8.87-2.38c2.74-1.59,4.96-3.91,6.66-6.98c1.69-3.07,2.54-6.66,2.54-10.77
			C821.75,913.73,820.9,910.15,819.21,907.13z"/>
		<path class="st0" d="M895.22,882.45v22.07h25.97v10.07h-25.97v23.05h29.21v10.06h-41.55v-75.31h41.55v10.06H895.22z"/>
		<path class="st0" d="M967.28,917.51l19.26,30.19h-13.95l-12.88-20.24l-12.12,20.24h-12.88l19.26-29.32l-19.26-30.3h13.96
			l12.87,20.24l12.12-20.24h12.87L967.28,917.51z"/>
		<path class="st0" d="M1018.79,889.92c3.6-1.88,7.68-2.81,12.23-2.81c5.19,0,9.93,1.28,14.22,3.84c4.29,2.56,7.67,6.15,10.12,10.77
			c2.45,4.62,3.68,9.92,3.68,15.91s-1.23,11.34-3.68,16.07c-2.45,4.73-5.83,8.4-10.12,11.04c-4.29,2.64-9.03,3.95-14.22,3.95
			c-4.55,0-8.59-0.92-12.13-2.76c-3.53-1.84-6.42-4.13-8.65-6.87v37H997.9v-87.97h12.34v8.76
			C1012.33,894.1,1015.18,891.8,1018.79,889.92z M1043.94,906.96c-1.7-2.99-3.93-5.27-6.71-6.82c-2.78-1.55-5.75-2.32-8.93-2.32
			c-3.11,0-6.05,0.79-8.82,2.38c-2.78,1.59-5.02,3.9-6.71,6.92c-1.7,3.03-2.54,6.6-2.54,10.71c0,4.11,0.85,7.7,2.54,10.77
			c1.69,3.06,3.93,5.39,6.71,6.98c2.77,1.59,5.71,2.38,8.82,2.38c3.17,0,6.15-0.81,8.93-2.43c2.78-1.62,5.01-3.99,6.71-7.09
			c1.7-3.1,2.54-6.71,2.54-10.82S1045.64,909.96,1043.94,906.96z"/>
		<path class="st0" d="M1127.65,922.49h-45.56c0.36,4.76,2.13,8.59,5.3,11.47c3.18,2.89,7.07,4.33,11.69,4.33
			c6.63,0,11.32-2.78,14.07-8.33h13.31c-1.8,5.48-5.07,9.97-9.79,13.47c-4.73,3.5-10.58,5.25-17.58,5.25
			c-5.7,0-10.81-1.28-15.31-3.84c-4.51-2.56-8.05-6.17-10.61-10.82c-2.56-4.65-3.84-10.04-3.84-16.18s1.24-11.52,3.73-16.18
			c2.49-4.65,5.99-8.24,10.5-10.77c4.51-2.52,9.68-3.79,15.53-3.79c5.62,0,10.64,1.23,15.04,3.68c4.4,2.45,7.83,5.9,10.28,10.33
			c2.45,4.44,3.68,9.54,3.68,15.31C1128.08,918.67,1127.93,920.69,1127.65,922.49z M1115.2,912.54c-0.07-4.54-1.7-8.19-4.87-10.93
			c-3.18-2.74-7.11-4.11-11.79-4.11c-4.26,0-7.9,1.35-10.93,4.06c-3.03,2.7-4.83,6.37-5.41,10.98H1115.2z"/>
		<path class="st0" d="M1161.89,889.65c2.99-1.69,6.55-2.54,10.66-2.54v12.77h-3.14c-4.83,0-8.49,1.23-10.98,3.68
			c-2.49,2.45-3.73,6.71-3.73,12.77v31.38h-12.34v-59.62h12.34v8.66C1156.5,893.71,1158.9,891.35,1161.89,889.65z"/>
		<path class="st0" d="M1186.72,877.91c-1.51-1.51-2.27-3.39-2.27-5.63c0-2.24,0.76-4.11,2.27-5.63c1.51-1.51,3.39-2.27,5.62-2.27
			c2.17,0,4,0.76,5.52,2.27c1.52,1.51,2.28,3.39,2.28,5.63c0,2.24-0.76,4.11-2.28,5.63c-1.51,1.51-3.35,2.27-5.52,2.27
			C1190.11,880.18,1188.24,879.43,1186.72,877.91z M1198.41,888.08v59.62h-12.34v-59.62H1198.41z"/>
		<path class="st0" d="M1271.01,922.49h-45.56c0.36,4.76,2.13,8.59,5.3,11.47c3.18,2.89,7.07,4.33,11.69,4.33
			c6.63,0,11.32-2.78,14.07-8.33h13.31c-1.8,5.48-5.07,9.97-9.79,13.47s-10.58,5.25-17.58,5.25c-5.7,0-10.81-1.28-15.31-3.84
			c-4.51-2.56-8.05-6.17-10.61-10.82c-2.56-4.65-3.84-10.04-3.84-16.18s1.24-11.52,3.73-16.18c2.49-4.65,5.99-8.24,10.5-10.77
			c4.51-2.52,9.68-3.79,15.53-3.79c5.62,0,10.64,1.23,15.04,3.68c4.4,2.45,7.83,5.9,10.28,10.33c2.45,4.44,3.68,9.54,3.68,15.31
			C1271.45,918.67,1271.3,920.69,1271.01,922.49z M1258.57,912.54c-0.07-4.54-1.7-8.19-4.87-10.93c-3.18-2.74-7.11-4.11-11.79-4.11
			c-4.26,0-7.9,1.35-10.93,4.06c-3.03,2.7-4.83,6.37-5.41,10.98H1258.57z"/>
		<path class="st0" d="M1328.41,890.03c3.72,1.95,6.62,4.83,8.71,8.66c2.09,3.82,3.13,8.44,3.13,13.85v35.17h-12.23v-33.33
			c0-5.34-1.33-9.43-4-12.28c-2.67-2.85-6.31-4.27-10.93-4.27c-4.62,0-8.28,1.42-10.98,4.27c-2.71,2.85-4.06,6.94-4.06,12.28v33.33
			h-12.34v-59.62h12.34v6.82c2.02-2.45,4.6-4.36,7.74-5.73c3.13-1.37,6.47-2.06,10-2.06
			C1320.49,887.11,1324.7,888.08,1328.41,890.03z"/>
		<path class="st0" d="M1357.74,901.66c2.49-4.65,5.93-8.24,10.33-10.77c4.4-2.52,9.45-3.79,15.15-3.79
			c7.21,0,13.18,1.71,17.91,5.14c4.73,3.43,7.92,8.32,9.57,14.66h-13.31c-1.08-2.96-2.81-5.26-5.2-6.92
			c-2.38-1.66-5.37-2.49-8.98-2.49c-5.05,0-9.08,1.78-12.07,5.36c-2.99,3.57-4.49,8.57-4.49,14.99c0,6.42,1.49,11.43,4.49,15.04
			c2.99,3.61,7.02,5.41,12.07,5.41c7.14,0,11.86-3.14,14.17-9.41h13.31c-1.73,6.06-4.98,10.87-9.74,14.44
			c-4.76,3.57-10.67,5.36-17.74,5.36c-5.7,0-10.75-1.28-15.15-3.84c-4.4-2.56-7.84-6.17-10.33-10.82
			c-2.49-4.65-3.73-10.04-3.73-16.18S1355.25,906.32,1357.74,901.66z"/>
		<path class="st0" d="M1479.41,922.49h-45.56c0.36,4.76,2.13,8.59,5.3,11.47c3.18,2.89,7.07,4.33,11.69,4.33
			c6.63,0,11.32-2.78,14.07-8.33h13.31c-1.8,5.48-5.07,9.97-9.79,13.47c-4.73,3.5-10.58,5.25-17.58,5.25
			c-5.7,0-10.81-1.28-15.31-3.84c-4.51-2.56-8.05-6.17-10.61-10.82c-2.56-4.65-3.84-10.04-3.84-16.18s1.24-11.52,3.73-16.18
			c2.49-4.65,5.99-8.24,10.5-10.77c4.51-2.52,9.68-3.79,15.53-3.79c5.62,0,10.64,1.23,15.04,3.68c4.4,2.45,7.83,5.9,10.28,10.33
			c2.45,4.44,3.68,9.54,3.68,15.31C1479.85,918.67,1479.7,920.69,1479.41,922.49z M1466.97,912.54c-0.07-4.54-1.7-8.19-4.87-10.93
			c-3.18-2.74-7.11-4.11-11.79-4.11c-4.26,0-7.9,1.35-10.93,4.06c-3.03,2.7-4.83,6.37-5.41,10.98H1466.97z"/>
		<path class="st0" d="M1503.16,946.13c-3.72-1.69-6.65-4-8.82-6.92c-2.16-2.92-3.32-6.18-3.46-9.79h12.77
			c0.22,2.53,1.43,4.63,3.63,6.33c2.2,1.69,4.96,2.54,8.28,2.54c3.46,0,6.15-0.67,8.06-2c1.91-1.34,2.87-3.05,2.87-5.14
			c0-2.24-1.07-3.9-3.19-4.98c-2.13-1.08-5.5-2.27-10.12-3.57c-4.47-1.23-8.11-2.42-10.93-3.57s-5.25-2.92-7.3-5.3
			c-2.06-2.38-3.09-5.52-3.09-9.41c0-3.18,0.94-6.08,2.82-8.71c1.87-2.63,4.56-4.71,8.06-6.22c3.5-1.51,7.52-2.27,12.06-2.27
			c6.78,0,12.25,1.71,16.39,5.14c4.15,3.43,6.37,8.1,6.66,14.01h-12.33c-0.22-2.67-1.3-4.8-3.25-6.38c-1.95-1.59-4.58-2.38-7.9-2.38
			c-3.25,0-5.74,0.61-7.47,1.84s-2.59,2.85-2.59,4.87c0,1.59,0.58,2.92,1.73,4c1.15,1.08,2.56,1.93,4.22,2.54
			c1.66,0.61,4.11,1.39,7.36,2.33c4.33,1.15,7.88,2.32,10.66,3.52c2.78,1.19,5.17,2.94,7.19,5.25c2.02,2.31,3.07,5.37,3.14,9.2
			c0,3.39-0.94,6.42-2.81,9.09c-1.88,2.67-4.53,4.76-7.95,6.28c-3.43,1.51-7.45,2.27-12.06,2.27
			C1511.08,948.68,1506.88,947.83,1503.16,946.13z"/>
	</g>
	<g>
		<g>
			<path class="st0" d="M788.35,655.05c-5.54-10.11-13.15-17.8-22.83-23.1c-9.69-5.29-20.79-7.94-33.3-7.94
				c-8.3,0-16.06,1.06-23.28,3.16c-7.22,2.11-13.81,5.27-19.76,9.47c-5.96,4.21-12.06,9.93-18.32,17.15V580.7
				c0-9.86-2.2-17.33-6.59-22.38c-4.39-5.05-10.5-7.58-18.32-7.58c-7.7,0-13.69,2.5-17.96,7.49c-4.27,4.99-6.41,12.48-6.41,22.47
				v213.68c0,19.97,8.12,29.96,24.36,29.96c7.82,0,13.92-2.56,18.32-7.67c4.39-5.11,6.59-12.54,6.59-22.29v-65.15
				c0-18.77,1.32-31.82,3.97-39.16c3.49-8.66,8.75-15.49,15.79-20.48c7.04-4.99,14.95-7.49,23.73-7.49
				c13.11,0,22.02,4.24,26.71,12.72s7.04,20.61,7.04,36.37v83.2c0,19.97,8.12,29.96,24.36,29.96c7.46,0,13.45-2.53,17.96-7.58
				s6.77-12.51,6.77-22.38v-94.39c0-9.5-0.6-17.89-1.8-25.18C794.18,667.54,791.84,660.95,788.35,655.05z"/>
			<path class="st0" d="M1006.01,730.76c7.1-3.67,10.65-11.7,10.65-24.09c0-13.36-3.43-26.47-10.29-39.34
				c-6.86-12.87-17.18-23.37-30.95-31.49c-13.78-8.12-30.29-12.18-49.54-12.18c-14.8,0-28.28,2.38-40.43,7.13
				c-12.16,4.76-22.38,11.58-30.68,20.48c-8.3,8.91-14.62,19.58-18.95,32.03c-4.33,12.45-6.5,25.96-6.5,40.52
				c0,30.92,8.78,55.41,26.35,73.45c17.56,18.05,42.17,27.07,73.81,27.07c13.83,0,26.08-1.8,36.73-5.41
				c10.65-3.61,19.49-8.15,26.53-13.63c7.04-5.47,12.3-11.19,15.79-17.15c3.49-5.96,5.23-11.16,5.23-15.61
				c0-5.05-1.57-8.96-4.69-11.73c-3.13-2.77-7.22-4.15-12.27-4.15c-4.69,0-8.3,1.08-10.83,3.25c-6.14,5.78-11.13,10.35-14.98,13.72
				c-3.85,3.37-8.06,6.53-12.63,9.47c-4.58,2.95-9.29,5.12-14.17,6.5c-4.87,1.39-10.26,2.08-16.15,2.08
				c-8.78,0-16.82-2.17-24.09-6.5c-7.28-4.33-13.12-10.77-17.51-19.31c-4.39-8.54-6.65-18.41-6.77-29.6h96.37
				C988.92,736.27,998.91,734.44,1006.01,730.76z M879.68,708.3c1.68-16.6,6.47-29.15,14.35-37.63
				c7.88-8.48,17.96-12.72,30.23-12.72c12.87,0,23.25,4.18,31.13,12.54c7.88,8.37,12.42,20.97,13.63,37.81H879.68z"/>
			<path class="st0" d="M1119.9,628.34h-12.09v-11.73c0-9.75,1.26-17.24,3.79-22.47c2.53-5.23,8.24-7.85,17.15-7.85
				c3.25,0,7.22,0.36,11.91,1.08s8,1.08,9.93,1.08c4.09,0,7.64-1.62,10.65-4.87c3-3.25,4.51-7.16,4.51-11.73
				c0-14.08-14.38-21.12-43.13-21.12c-16.24,0-29.03,2.08-38.35,6.23c-9.33,4.15-15.95,10.77-19.85,19.85
				c-3.91,9.09-5.87,21.33-5.87,36.73v14.8h-11.73c-16.49,0-24.73,5.9-24.73,17.69c0,5.3,1.99,9.6,5.96,12.9
				c3.97,3.31,9.62,4.96,16.96,4.96h13.54v130.48c0,9.75,2.31,17.18,6.95,22.29c4.63,5.11,10.44,7.67,17.42,7.67
				c7.34,0,13.32-2.56,17.96-7.67c4.63-5.11,6.95-12.54,6.95-22.29V663.9h12.09c8.78,0,15.67-1.08,20.66-3.25
				c4.99-2.17,7.49-7.28,7.49-15.34C1148.05,634,1138.67,628.34,1119.9,628.34z"/>
			<path class="st0" d="M1319.51,651.81c-8.66-8.9-19.07-15.76-31.22-20.57c-12.16-4.81-25.69-7.22-40.61-7.22
				c-14.68,0-28.1,2.38-40.25,7.13c-12.16,4.76-22.5,11.52-31.04,20.3c-8.55,8.78-15.1,19.37-19.67,31.76
				c-4.58,12.39-6.86,26.05-6.86,40.97c0,14.8,2.26,28.31,6.77,40.52c4.51,12.21,11.13,22.8,19.85,31.76
				c8.72,8.97,19.04,15.85,30.95,20.66c11.91,4.81,25.33,7.22,40.25,7.22c15.04,0,28.57-2.38,40.61-7.13
				c12.03-4.75,22.38-11.58,31.04-20.48c8.66-8.9,15.28-19.55,19.85-31.94c4.57-12.39,6.86-25.93,6.86-40.61
				c0-14.8-2.26-28.33-6.77-40.61C1334.76,671.3,1328.18,660.71,1319.51,651.81z M1283.33,770.83
				c-8.84,11.25-20.73,16.87-35.64,16.87c-9.87,0-18.44-2.55-25.72-7.67c-7.28-5.11-12.88-12.48-16.78-22.11
				c-3.91-9.62-5.87-20.87-5.87-33.75c0-12.99,1.99-24.36,5.96-34.11c3.97-9.75,9.62-17.11,16.96-22.11
				c7.34-4.99,15.82-7.49,25.45-7.49c14.92,0,26.8,5.59,35.64,16.78c8.84,11.19,13.27,26.83,13.27,46.92
				C1296.59,744.03,1292.17,759.58,1283.33,770.83z"/>
			<path class="st0" d="M1543.85,656.5c-5.05-10.35-12.7-18.35-22.92-24c-10.23-5.65-21.84-8.48-34.83-8.48
				c-13.36,0-25.18,2.68-35.46,8.03c-10.29,5.36-19.76,13.75-28.43,25.18v-5.96c0-5.89-1.06-10.89-3.16-14.98
				c-2.11-4.09-4.9-7.16-8.39-9.2c-3.49-2.04-7.4-3.07-11.73-3.07c-7.1,0-12.7,2.32-16.78,6.95c-4.09,4.63-6.14,11.64-6.14,21.03
				v142.4c0,9.63,2.28,17.03,6.86,22.2c4.57,5.17,10.4,7.76,17.51,7.76c7.34,0,13.32-2.5,17.96-7.49
				c4.63-4.99,6.95-12.48,6.95-22.47v-61.72c0-20.09,1.2-33.81,3.61-41.15c3.37-9.14,8.66-16.33,15.88-21.57
				c7.22-5.23,15.22-7.85,24-7.85c13.47,0,22.47,4.3,26.98,12.9c4.51,8.6,6.77,21.03,6.77,37.27v82.12c0,9.63,2.28,17.03,6.86,22.2
				c4.57,5.17,10.53,7.76,17.87,7.76c7.22,0,13.08-2.53,17.6-7.58c4.51-5.05,6.77-12.51,6.77-22.38V702.7
				c0-10.83-0.48-19.73-1.44-26.71C1549.2,669.01,1547.1,662.52,1543.85,656.5z"/>
			<path class="st0" d="M1755.11,635.02c-1.87-3.37-4.51-6.05-7.94-8.03s-7.01-2.98-10.74-2.98c-5.18,0-9.18,0.9-12,2.71
				c-2.83,1.8-5.5,5.3-8.03,10.47c-2.53,5.18-5.36,12.34-8.48,21.48l-39.52,112.8l-41.69-121.28c-2.77-8.42-5.96-14.89-9.57-19.4
				s-8.97-6.77-16.06-6.77c-4.09,0-8.03,1.08-11.82,3.25c-3.79,2.17-6.77,5.05-8.93,8.66c-2.17,3.61-3.25,7.52-3.25,11.73
				c0,3.97,1.86,10.35,5.59,19.13l60.64,152.68l-4.51,11.01c-3.37,8.06-6.35,14.17-8.93,18.32c-2.59,4.15-5.5,7.07-8.75,8.75
				c-3.25,1.68-7.7,2.53-13.36,2.53c-2.29,0-4.99-0.36-8.12-1.08c-2.53-0.72-5.12-1.08-7.76-1.08c-6.74,0-11.82,1.53-15.25,4.6
				c-3.43,3.07-5.14,7.43-5.14,13.08c0,8.3,3.61,14.01,10.83,17.15c7.22,3.13,18.05,4.69,32.49,4.69c14.8,0,26.56-2.26,35.28-6.77
				c8.72-4.51,15.73-10.98,21.03-19.4c5.29-8.42,10.71-20.03,16.24-34.83l64.25-168.2c1.56-4.33,2.89-8.6,3.97-12.81
				c1.08-4.21,1.86-7.46,2.35-9.75C1757.9,641.94,1756.97,638.39,1755.11,635.02z"/>
		</g>
		<path class="st0" d="M511.43,471.91c-24.51-12.51-52.87-18.86-84.29-18.86c-25.77,0-50.4,4.65-73.18,13.83
			c-22.74,9.17-42.85,22.71-59.77,40.24c-16.93,17.55-30.12,38.97-39.2,63.67c-9.11,24.75-13.73,53.21-13.73,84.59
			c0,19.34,1.84,37.85,5.47,55.02c3.62,17.15,9.13,33.51,16.38,48.63c7.24,15.11,16.11,28.94,26.34,41.11
			c11.42,13.36,24.13,24.29,37.77,32.47c13.64,8.19,29.03,14.3,45.76,18.16c16.82,3.89,35.77,5.87,56.32,5.87
			c27.01,0,50.98-4.38,71.24-13c20.23-8.62,37.09-19.98,50.08-33.76c13.03-13.82,22.7-28.07,28.75-42.37
			c6.03-14.25,9.09-27.65,9.09-39.82c0-9.21-3.08-16.69-9.43-22.88c-6.38-6.2-13.79-9.21-22.66-9.21c-10.35,0-17.6,2.87-22.13,8.79
			c-4.83,6.3-8.96,14.61-12.26,24.69c-8.28,22.63-20.72,39.99-37.01,51.68c-16.31,11.71-36.5,17.64-60,17.64
			c-21.66,0-40.85-5.23-57.04-15.53c-16.23-10.32-28.92-26.12-37.73-46.96c-8.74-20.65-13.17-46.84-13.17-77.82
			c0-46.46,10.04-82.88,29.85-108.24c19.96-25.58,47.15-38.55,80.79-38.55c21.15,0,39.23,5.06,53.74,15.05
			c14.41,9.91,27.09,25.03,37.69,44.94c6.12,11.55,11.71,19.76,16.6,24.4c4.58,4.34,11.72,6.54,21.2,6.54
			c8.46,0,15.49-3.16,21.48-9.65c6.05-6.56,8.99-13.9,8.99-22.44c0-16.07-6.55-33.47-19.47-51.72
			C554.92,500.08,535.92,484.43,511.43,471.91z"/>
	</g>
</g>
</svg>
